<?xml version="1.0"?>
<svg xmlns="http://www.w3.org/2000/svg" xmlns:xlink="http://www.w3.org/1999/xlink" xmlns:svgjs="http://svgjs.com/svgjs" version="1.1" width="512" height="512" x="0" y="0" viewBox="0 0 64 64" style="enable-background:new 0 0 512 512" xml:space="preserve"><g><g xmlns="http://www.w3.org/2000/svg" id="support"><path d="M48.219,6.348a7.082,7.082,0,0,0-6.581,1.177A6.966,6.966,0,0,0,39,13a1,1,0,0,0,1,1h4a1,1,0,0,0,1-1,1,1,0,0,1,.376-.782,1.022,1.022,0,0,1,.92-.181.961.961,0,0,1,.679.725,1.013,1.013,0,0,1-.463,1.1A7.073,7.073,0,0,0,43,20a3,3,0,1,0,6-.077,1.1,1.1,0,0,1,.592-.913A7.076,7.076,0,0,0,52.553,10.5,6.861,6.861,0,0,0,48.219,6.348Zm.345,10.945A3.11,3.11,0,0,0,47,20a1,1,0,0,1-1,1,1.02,1.02,0,0,1-1-1.077,5.058,5.058,0,0,1,2.537-4.346,3,3,0,0,0,1.4-3.211A2.945,2.945,0,0,0,46.781,10.1a3.254,3.254,0,0,0-.789-.1,3.011,3.011,0,0,0-2.822,2H41.1a4.97,4.97,0,0,1,1.785-2.911,5.078,5.078,0,0,1,4.727-.835,4.85,4.85,0,0,1,3.064,2.932A5.071,5.071,0,0,1,48.564,17.293Z" fill="#ffffff" data-original="#000000" style=""/><path d="M46,24a3,3,0,1,0,3,3A3,3,0,0,0,46,24Zm0,4a1,1,0,1,1,1-1A1,1,0,0,1,46,28Z" fill="#ffffff" data-original="#000000" style=""/><path d="M46,2A16.019,16.019,0,0,0,30,18a15.842,15.842,0,0,0,2.846,9.082l-.823,3.7a1,1,0,0,0,1.329,1.154L36.4,30.793A16,16,0,1,0,46,2Zm0,30a13.839,13.839,0,0,1-8.8-3.117,1,1,0,0,0-.98-.159l-1.846.692.52-2.335a1.006,1.006,0,0,0-.171-.81A13.869,13.869,0,0,1,32,18,14,14,0,1,1,46,32Z" fill="#ffffff" data-original="#000000" style=""/><path d="M27,29.87V12a7.008,7.008,0,0,0-7-7H14a7.008,7.008,0,0,0-7,7V29.87A9.082,9.082,0,0,0,2,38V61a1,1,0,0,0,1,1H31a1,1,0,0,0,1-1V38A9.082,9.082,0,0,0,27,29.87ZM9,12a5,5,0,0,1,5-5h6a5,5,0,0,1,5,5V29.16a6.539,6.539,0,0,0-.75-.13l-2.71-.9L21,27.59V24.74A7.01,7.01,0,0,0,24,19V13a1,1,0,0,0-.45-.83l-3-2a.991.991,0,0,0-.77-.15l-9,2A1.015,1.015,0,0,0,10,13v6a7.01,7.01,0,0,0,3,5.74v2.85l-.54.54-2.71.9a6.539,6.539,0,0,0-.75.13ZM19.29,28.71l.3.29L17,31.59,14.41,29l.3-.29A1.033,1.033,0,0,0,15,28V25.71a7.042,7.042,0,0,0,4,0V28A1.033,1.033,0,0,0,19.29,28.71ZM17,24a5,5,0,0,1-5-5V13.8l7.8-1.73L22,13.54V19A5,5,0,0,1,17,24Zm-.71,9.71a1.008,1.008,0,0,0,1.42,0l3.56-3.57,1.14.38L17,38.26l-5.41-7.74,1.14-.38ZM8,60H4V50H8Zm16,0H10V56H24Zm6,0H26V50h4Zm0-12H25a1,1,0,0,0-1,1v5H10V49a1,1,0,0,0-1-1H4V38a7.025,7.025,0,0,1,5.54-6.91l6.64,9.48a1,1,0,0,0,1.64,0l6.64-9.48A7.025,7.025,0,0,1,30,38Z" fill="#ffffff" data-original="#000000" style=""/><rect x="14" y="15" width="2" height="2" fill="#ffffff" data-original="#000000" style=""/><rect x="18" y="15" width="2" height="2" fill="#ffffff" data-original="#000000" style=""/></g></g></svg>
